<mxfile host="app.diagrams.net" modified="2023-09-27T17:33:21.948Z" agent="Mozilla/5.0 (X11; Linux x86_64; rv:109.0) Gecko/20100101 Firefox/114.0" etag="HBFkIgGDCEh-J_QZmNVU" version="21.8.1" type="github">
  <diagram name="Página-1" id="8Bnbt17q5_xE-XtLdgAV">
    <mxGraphModel dx="1434" dy="752" grid="1" gridSize="10" guides="1" tooltips="1" connect="1" arrows="1" fold="1" page="1" pageScale="1" pageWidth="827" pageHeight="1169" math="0" shadow="0">
      <root>
        <mxCell id="0" />
        <mxCell id="1" parent="0" />
        <mxCell id="9--HTo7vSKpe2ujtOuyB-39" value="COCHE" style="rounded=0;whiteSpace=wrap;html=1;" parent="1" vertex="1">
          <mxGeometry x="189" y="390" width="120" height="60" as="geometry" />
        </mxCell>
        <mxCell id="9--HTo7vSKpe2ujtOuyB-41" value="REVISIONES" style="rounded=0;whiteSpace=wrap;html=1;" parent="1" vertex="1">
          <mxGeometry x="620" y="390" width="120" height="60" as="geometry" />
        </mxCell>
        <mxCell id="9--HTo7vSKpe2ujtOuyB-42" value="CLIENTE" style="rounded=0;whiteSpace=wrap;html=1;" parent="1" vertex="1">
          <mxGeometry x="319" y="60" width="120" height="60" as="geometry" />
        </mxCell>
        <mxCell id="76izQNMbYo1NZKukYHvX-29" style="edgeStyle=orthogonalEdgeStyle;rounded=0;orthogonalLoop=1;jettySize=auto;html=1;entryX=1;entryY=0.5;entryDx=0;entryDy=0;" edge="1" parent="1" source="9--HTo7vSKpe2ujtOuyB-44" target="9--HTo7vSKpe2ujtOuyB-39">
          <mxGeometry relative="1" as="geometry">
            <mxPoint x="320" y="420" as="targetPoint" />
          </mxGeometry>
        </mxCell>
        <mxCell id="76izQNMbYo1NZKukYHvX-30" style="edgeStyle=orthogonalEdgeStyle;rounded=0;orthogonalLoop=1;jettySize=auto;html=1;entryX=0;entryY=0.5;entryDx=0;entryDy=0;" edge="1" parent="1" source="9--HTo7vSKpe2ujtOuyB-44" target="9--HTo7vSKpe2ujtOuyB-41">
          <mxGeometry relative="1" as="geometry" />
        </mxCell>
        <mxCell id="9--HTo7vSKpe2ujtOuyB-44" value="realiza" style="rhombus;whiteSpace=wrap;html=1;" parent="1" vertex="1">
          <mxGeometry x="420" y="380" width="80" height="80" as="geometry" />
        </mxCell>
        <mxCell id="9--HTo7vSKpe2ujtOuyB-73" style="edgeStyle=orthogonalEdgeStyle;rounded=0;orthogonalLoop=1;jettySize=auto;html=1;exitX=0.5;exitY=1;exitDx=0;exitDy=0;entryX=0;entryY=0.5;entryDx=0;entryDy=0;" parent="1" source="9--HTo7vSKpe2ujtOuyB-45" edge="1" target="9--HTo7vSKpe2ujtOuyB-39">
          <mxGeometry relative="1" as="geometry">
            <mxPoint x="245" y="330" as="targetPoint" />
            <mxPoint x="70" y="340" as="sourcePoint" />
          </mxGeometry>
        </mxCell>
        <mxCell id="76izQNMbYo1NZKukYHvX-2" style="edgeStyle=orthogonalEdgeStyle;rounded=0;orthogonalLoop=1;jettySize=auto;html=1;entryX=0;entryY=0.5;entryDx=0;entryDy=0;" edge="1" parent="1" source="9--HTo7vSKpe2ujtOuyB-45" target="9--HTo7vSKpe2ujtOuyB-42">
          <mxGeometry relative="1" as="geometry">
            <Array as="points">
              <mxPoint x="70" y="90" />
            </Array>
          </mxGeometry>
        </mxCell>
        <mxCell id="9--HTo7vSKpe2ujtOuyB-45" value="compra" style="rhombus;whiteSpace=wrap;html=1;" parent="1" vertex="1">
          <mxGeometry x="29" y="250" width="80" height="80" as="geometry" />
        </mxCell>
        <mxCell id="9--HTo7vSKpe2ujtOuyB-51" value="matricula" style="ellipse;whiteSpace=wrap;html=1;" parent="1" vertex="1">
          <mxGeometry x="60" y="500" width="80" height="40" as="geometry" />
        </mxCell>
        <mxCell id="9--HTo7vSKpe2ujtOuyB-52" value="modelo" style="ellipse;whiteSpace=wrap;html=1;" parent="1" vertex="1">
          <mxGeometry x="209" y="530" width="80" height="40" as="geometry" />
        </mxCell>
        <mxCell id="9--HTo7vSKpe2ujtOuyB-53" value="marca" style="ellipse;whiteSpace=wrap;html=1;" parent="1" vertex="1">
          <mxGeometry x="300" y="530" width="80" height="40" as="geometry" />
        </mxCell>
        <mxCell id="9--HTo7vSKpe2ujtOuyB-56" value="&lt;u&gt;NIF&lt;/u&gt;" style="ellipse;whiteSpace=wrap;html=1;" parent="1" vertex="1">
          <mxGeometry x="150" y="170" width="100" height="40" as="geometry" />
        </mxCell>
        <mxCell id="9--HTo7vSKpe2ujtOuyB-57" value="nombre" style="ellipse;whiteSpace=wrap;html=1;" parent="1" vertex="1">
          <mxGeometry x="250" y="150" width="80" height="40" as="geometry" />
        </mxCell>
        <mxCell id="9--HTo7vSKpe2ujtOuyB-58" value="ciudad" style="ellipse;whiteSpace=wrap;html=1;" parent="1" vertex="1">
          <mxGeometry x="280" y="200" width="80" height="40" as="geometry" />
        </mxCell>
        <mxCell id="9--HTo7vSKpe2ujtOuyB-59" value="telefono" style="ellipse;whiteSpace=wrap;html=1;" parent="1" vertex="1">
          <mxGeometry x="300" y="260" width="110" height="40" as="geometry" />
        </mxCell>
        <mxCell id="9--HTo7vSKpe2ujtOuyB-62" value="" style="endArrow=none;html=1;rounded=0;entryX=0;entryY=1;entryDx=0;entryDy=0;exitX=0.5;exitY=0;exitDx=0;exitDy=0;" parent="1" source="9--HTo7vSKpe2ujtOuyB-51" target="9--HTo7vSKpe2ujtOuyB-39" edge="1">
          <mxGeometry width="50" height="50" relative="1" as="geometry">
            <mxPoint x="149" y="500" as="sourcePoint" />
            <mxPoint x="225" y="460" as="targetPoint" />
          </mxGeometry>
        </mxCell>
        <mxCell id="9--HTo7vSKpe2ujtOuyB-63" value="" style="endArrow=none;html=1;rounded=0;entryX=0.25;entryY=1;entryDx=0;entryDy=0;exitX=0.5;exitY=0;exitDx=0;exitDy=0;" parent="1" source="9--HTo7vSKpe2ujtOuyB-52" target="9--HTo7vSKpe2ujtOuyB-39" edge="1">
          <mxGeometry width="50" height="50" relative="1" as="geometry">
            <mxPoint x="189" y="510" as="sourcePoint" />
            <mxPoint x="239" y="460" as="targetPoint" />
          </mxGeometry>
        </mxCell>
        <mxCell id="9--HTo7vSKpe2ujtOuyB-64" value="" style="endArrow=none;html=1;rounded=0;entryX=0.5;entryY=1;entryDx=0;entryDy=0;exitX=0.5;exitY=0;exitDx=0;exitDy=0;" parent="1" source="9--HTo7vSKpe2ujtOuyB-53" target="9--HTo7vSKpe2ujtOuyB-39" edge="1">
          <mxGeometry width="50" height="50" relative="1" as="geometry">
            <mxPoint x="225" y="510" as="sourcePoint" />
            <mxPoint x="275" y="460" as="targetPoint" />
          </mxGeometry>
        </mxCell>
        <mxCell id="9--HTo7vSKpe2ujtOuyB-67" value="" style="endArrow=none;html=1;rounded=0;entryX=0.75;entryY=1;entryDx=0;entryDy=0;exitX=0.5;exitY=0;exitDx=0;exitDy=0;" parent="1" source="9--HTo7vSKpe2ujtOuyB-59" target="9--HTo7vSKpe2ujtOuyB-42" edge="1">
          <mxGeometry width="50" height="50" relative="1" as="geometry">
            <mxPoint x="439" y="150" as="sourcePoint" />
            <mxPoint x="489" y="100" as="targetPoint" />
          </mxGeometry>
        </mxCell>
        <mxCell id="9--HTo7vSKpe2ujtOuyB-68" value="" style="endArrow=none;html=1;rounded=0;entryX=0.5;entryY=1;entryDx=0;entryDy=0;exitX=0.5;exitY=0;exitDx=0;exitDy=0;" parent="1" source="9--HTo7vSKpe2ujtOuyB-58" target="9--HTo7vSKpe2ujtOuyB-42" edge="1">
          <mxGeometry width="50" height="50" relative="1" as="geometry">
            <mxPoint x="339" y="200" as="sourcePoint" />
            <mxPoint x="389" y="150" as="targetPoint" />
          </mxGeometry>
        </mxCell>
        <mxCell id="9--HTo7vSKpe2ujtOuyB-69" value="" style="endArrow=none;html=1;rounded=0;entryX=0.25;entryY=1;entryDx=0;entryDy=0;exitX=0.5;exitY=0;exitDx=0;exitDy=0;" parent="1" source="9--HTo7vSKpe2ujtOuyB-57" target="9--HTo7vSKpe2ujtOuyB-42" edge="1">
          <mxGeometry width="50" height="50" relative="1" as="geometry">
            <mxPoint x="329" y="195" as="sourcePoint" />
            <mxPoint x="379" y="145" as="targetPoint" />
          </mxGeometry>
        </mxCell>
        <mxCell id="9--HTo7vSKpe2ujtOuyB-70" value="" style="endArrow=none;html=1;rounded=0;entryX=0;entryY=1;entryDx=0;entryDy=0;exitX=0.5;exitY=0;exitDx=0;exitDy=0;" parent="1" source="9--HTo7vSKpe2ujtOuyB-56" target="9--HTo7vSKpe2ujtOuyB-42" edge="1">
          <mxGeometry width="50" height="50" relative="1" as="geometry">
            <mxPoint x="309" y="190" as="sourcePoint" />
            <mxPoint x="359" y="140" as="targetPoint" />
          </mxGeometry>
        </mxCell>
        <mxCell id="76izQNMbYo1NZKukYHvX-4" value="cambio_aceite" style="ellipse;whiteSpace=wrap;html=1;" vertex="1" parent="1">
          <mxGeometry x="560" y="530" width="100" height="40" as="geometry" />
        </mxCell>
        <mxCell id="76izQNMbYo1NZKukYHvX-6" value="cambio_frenos" style="ellipse;whiteSpace=wrap;html=1;" vertex="1" parent="1">
          <mxGeometry x="640" y="570" width="110" height="40" as="geometry" />
        </mxCell>
        <mxCell id="76izQNMbYo1NZKukYHvX-7" value="código_revision" style="ellipse;whiteSpace=wrap;html=1;" vertex="1" parent="1">
          <mxGeometry x="710" y="520" width="110" height="40" as="geometry" />
        </mxCell>
        <mxCell id="76izQNMbYo1NZKukYHvX-8" value="cambio_filtro" style="ellipse;whiteSpace=wrap;html=1;" vertex="1" parent="1">
          <mxGeometry x="510" y="480" width="90" height="40" as="geometry" />
        </mxCell>
        <mxCell id="76izQNMbYo1NZKukYHvX-9" value="" style="endArrow=none;html=1;rounded=0;entryX=0.25;entryY=1;entryDx=0;entryDy=0;exitX=1;exitY=0;exitDx=0;exitDy=0;" edge="1" parent="1" source="76izQNMbYo1NZKukYHvX-8" target="9--HTo7vSKpe2ujtOuyB-41">
          <mxGeometry width="50" height="50" relative="1" as="geometry">
            <mxPoint x="660" y="520" as="sourcePoint" />
            <mxPoint x="710" y="470" as="targetPoint" />
            <Array as="points" />
          </mxGeometry>
        </mxCell>
        <mxCell id="76izQNMbYo1NZKukYHvX-10" value="" style="endArrow=none;html=1;rounded=0;entryX=0.5;entryY=1;entryDx=0;entryDy=0;exitX=0.5;exitY=0;exitDx=0;exitDy=0;" edge="1" parent="1" source="76izQNMbYo1NZKukYHvX-4" target="9--HTo7vSKpe2ujtOuyB-41">
          <mxGeometry width="50" height="50" relative="1" as="geometry">
            <mxPoint x="630" y="520" as="sourcePoint" />
            <mxPoint x="690" y="450" as="targetPoint" />
          </mxGeometry>
        </mxCell>
        <mxCell id="76izQNMbYo1NZKukYHvX-11" value="" style="endArrow=none;html=1;rounded=0;entryX=0.75;entryY=1;entryDx=0;entryDy=0;exitX=0.5;exitY=0;exitDx=0;exitDy=0;" edge="1" parent="1" source="76izQNMbYo1NZKukYHvX-6" target="9--HTo7vSKpe2ujtOuyB-41">
          <mxGeometry width="50" height="50" relative="1" as="geometry">
            <mxPoint x="680" y="540" as="sourcePoint" />
            <mxPoint x="730" y="490" as="targetPoint" />
          </mxGeometry>
        </mxCell>
        <mxCell id="76izQNMbYo1NZKukYHvX-12" value="" style="endArrow=none;html=1;rounded=0;exitX=0.5;exitY=0;exitDx=0;exitDy=0;entryX=1;entryY=1;entryDx=0;entryDy=0;" edge="1" parent="1" source="76izQNMbYo1NZKukYHvX-7" target="9--HTo7vSKpe2ujtOuyB-41">
          <mxGeometry width="50" height="50" relative="1" as="geometry">
            <mxPoint x="710" y="530" as="sourcePoint" />
            <mxPoint x="760" y="480" as="targetPoint" />
          </mxGeometry>
        </mxCell>
        <mxCell id="76izQNMbYo1NZKukYHvX-13" value="(1,n)" style="text;html=1;strokeColor=none;fillColor=none;align=center;verticalAlign=middle;whiteSpace=wrap;rounded=0;" vertex="1" parent="1">
          <mxGeometry x="319" y="390" width="60" height="30" as="geometry" />
        </mxCell>
        <mxCell id="76izQNMbYo1NZKukYHvX-14" value="&lt;div&gt;(1,n)&lt;/div&gt;" style="text;html=1;strokeColor=none;fillColor=none;align=center;verticalAlign=middle;whiteSpace=wrap;rounded=0;" vertex="1" parent="1">
          <mxGeometry x="550" y="390" width="60" height="30" as="geometry" />
        </mxCell>
        <mxCell id="76izQNMbYo1NZKukYHvX-15" value="N:M" style="text;html=1;strokeColor=none;fillColor=none;align=center;verticalAlign=middle;whiteSpace=wrap;rounded=0;" vertex="1" parent="1">
          <mxGeometry x="430" y="350" width="60" height="30" as="geometry" />
        </mxCell>
        <mxCell id="76izQNMbYo1NZKukYHvX-16" value="1:N" style="text;html=1;strokeColor=none;fillColor=none;align=center;verticalAlign=middle;whiteSpace=wrap;rounded=0;" vertex="1" parent="1">
          <mxGeometry x="109" y="275" width="60" height="30" as="geometry" />
        </mxCell>
        <mxCell id="76izQNMbYo1NZKukYHvX-17" value="(1,n)" style="text;html=1;strokeColor=none;fillColor=none;align=center;verticalAlign=middle;whiteSpace=wrap;rounded=0;" vertex="1" parent="1">
          <mxGeometry x="100" y="390" width="60" height="30" as="geometry" />
        </mxCell>
        <mxCell id="76izQNMbYo1NZKukYHvX-18" value="(1,1)" style="text;html=1;strokeColor=none;fillColor=none;align=center;verticalAlign=middle;whiteSpace=wrap;rounded=0;" vertex="1" parent="1">
          <mxGeometry x="240" y="60" width="60" height="30" as="geometry" />
        </mxCell>
        <mxCell id="76izQNMbYo1NZKukYHvX-21" value="color" style="ellipse;whiteSpace=wrap;html=1;" vertex="1" parent="1">
          <mxGeometry x="339" y="480" width="80" height="40" as="geometry" />
        </mxCell>
        <mxCell id="76izQNMbYo1NZKukYHvX-22" value="" style="endArrow=none;html=1;rounded=0;entryX=0.75;entryY=1;entryDx=0;entryDy=0;exitX=0;exitY=0;exitDx=0;exitDy=0;" edge="1" parent="1" source="76izQNMbYo1NZKukYHvX-21" target="9--HTo7vSKpe2ujtOuyB-39">
          <mxGeometry width="50" height="50" relative="1" as="geometry">
            <mxPoint x="385.5" y="540" as="sourcePoint" />
            <mxPoint x="294.5" y="460" as="targetPoint" />
          </mxGeometry>
        </mxCell>
        <mxCell id="76izQNMbYo1NZKukYHvX-23" value="precio_venta" style="ellipse;whiteSpace=wrap;html=1;" vertex="1" parent="1">
          <mxGeometry x="120" y="545" width="80" height="40" as="geometry" />
        </mxCell>
        <mxCell id="76izQNMbYo1NZKukYHvX-24" value="dirección" style="ellipse;whiteSpace=wrap;html=1;" vertex="1" parent="1">
          <mxGeometry x="460" y="190" width="110" height="40" as="geometry" />
        </mxCell>
        <mxCell id="76izQNMbYo1NZKukYHvX-25" value="" style="endArrow=none;html=1;rounded=0;entryX=1;entryY=1;entryDx=0;entryDy=0;exitX=0.5;exitY=0;exitDx=0;exitDy=0;" edge="1" parent="1" source="76izQNMbYo1NZKukYHvX-24" target="9--HTo7vSKpe2ujtOuyB-42">
          <mxGeometry width="50" height="50" relative="1" as="geometry">
            <mxPoint x="419" y="262.5" as="sourcePoint" />
            <mxPoint x="449" y="137.5" as="targetPoint" />
          </mxGeometry>
        </mxCell>
        <mxCell id="76izQNMbYo1NZKukYHvX-27" value="cod_cliente" style="ellipse;whiteSpace=wrap;html=1;" vertex="1" parent="1">
          <mxGeometry x="370" y="220" width="110" height="40" as="geometry" />
        </mxCell>
        <mxCell id="76izQNMbYo1NZKukYHvX-28" value="" style="endArrow=none;html=1;rounded=0;entryX=0.917;entryY=1;entryDx=0;entryDy=0;exitX=0.5;exitY=0;exitDx=0;exitDy=0;entryPerimeter=0;" edge="1" parent="1" source="76izQNMbYo1NZKukYHvX-27" target="9--HTo7vSKpe2ujtOuyB-42">
          <mxGeometry width="50" height="50" relative="1" as="geometry">
            <mxPoint x="460" y="240" as="sourcePoint" />
            <mxPoint x="384" y="170" as="targetPoint" />
          </mxGeometry>
        </mxCell>
      </root>
    </mxGraphModel>
  </diagram>
</mxfile>
